<svg xmlns="http://www.w3.org/2000/svg" viewBox="0 0 283 309" aria-hidden="true">
  <path
    fill="currentColor"
    fill-rule="evenodd"
    d="M141 7.05c2.47-.04 6.53.52 9 1.25s23.85 12.5 47.5 26.16 47.72 27.63 53.5 31.06c6.22 3.69 12.04 8.01 14.29 10.6 2.08 2.41 4.67 6.74 5.75 9.63 1.88 5.05 1.95 7.77 1.46 135.75l-2.25 4.25c-1.24 2.34-3.94 5.94-6 8-2.07 2.07-16.95 11.43-33.25 20.93-16.22 9.44-39.63 23.11-52 30.37-12.38 7.27-24.3 13.87-26.5 14.68-2.2.82-7.15 1.48-11 1.47s-8.35-.53-10-1.17c-1.65-.63-26.34-14.74-54.86-31.34S22.76 236.7 20.29 234.5c-2.46-2.2-5.68-6.47-9.79-15v-130l2.7-5.5c1.49-3.03 4.64-7.38 7-9.69 2.52-2.44 15.5-10.69 31.3-19.87 14.85-8.63 38.25-22.24 52-30.24s26.8-15.12 29-15.81 6.03-1.29 8.5-1.34M97 39.17C78.57 49.9 55.88 63.14 46.56 68.59S28.28 79.85 26.64 81.5c-1.63 1.65-3.79 4.8-4.78 7-1.69 3.72-1.82 8.28-1.85 65-.03 51.63.2 61.69 1.47 65.5.82 2.47 3.19 6.16 5.26 8.18s14.67 10.01 28.01 17.75S79.59 259 80.3 259c.72 0 1.85-.56 2.52-1.25.93-.96 1.2-20.88 1.15-86.75-.05-68.72.2-85.75 1.24-86.76 1-.98 10.29-1.19 41.79-.97l40.5.28c12.4 4.17 18.25 6.79 21 8.51s6.71 4.78 8.8 6.79 5.11 5.68 6.71 8.15 3.86 7.2 5.02 10.5c1.29 3.66 2.33 9.71 2.67 15.5.35 5.85.07 12.38-.73 17-.77 4.51-2.71 10.29-4.85 14.5-2.12 4.19-5.87 9.31-9.34 12.75-4 3.98-8.32 6.96-14.03 9.68-4.54 2.17-11.74 4.64-16 5.5-5.28 1.07-13.33 1.57-25.25 1.57-16.17 0-17.65.15-19.5 2-1.94 1.94-2 3.31-1.96 43.75l.04 41.75c4.98 4.7 9.01 7.06 12.17 8.28s7.21 2.23 9 2.24 5.28-.69 7.75-1.57c2.47-.87 19.12-10.16 37-20.65 17.87-10.48 39.47-23.13 48-28.09 8.53-4.97 17.46-10.42 19.86-12.12 2.39-1.7 5.54-5.12 7-7.59l2.64-4.5c.51-113.95.35-121.64-1.09-126.5-1.14-3.86-2.86-6.71-5.77-9.56-2.64-2.59-22.29-14.55-54.14-32.94C175 32.61 150.93 19.04 149 18.35s-5.3-1.26-7.5-1.26-5.57.58-7.5 1.28c-1.93.71-18.57 10.07-37 20.8m22.79 99.41c.13 17.68.35 20.11 1.93 21.64 1.52 1.48 3.96 1.73 16.78 1.76 10.32.03 16.56-.42 20-1.43 2.75-.8 6.8-2.97 9-4.82a19.26 19.26 0 0 0 5.76-8.29c.97-2.72 1.76-7.19 1.76-9.94 0-3.27-.84-6.73-2.43-10-1.48-3.03-3.95-6.03-6.27-7.62-2.1-1.44-5.62-3.12-7.82-3.74s-11.02-1.13-19.6-1.13c-13.79-.01-15.82.2-17.43 1.82-1.66 1.66-1.82 3.67-1.68 21.75"
  />
</svg>
